<svg width="24" height="20" viewBox="0 0 24 20" fill="none" xmlns="http://www.w3.org/2000/svg">
<path d="M23.8541 14.6306C23.0415 11.5819 21.7526 8.6625 20.0287 5.96738C19.1992 4.671 18.6761 3.6 17.0269 3.6C15.576 3.6 14.4 4.70325 14.4 6.06413V8.31825L13.167 7.49625C13.0849 7.44146 13.0175 7.36723 12.9709 7.28016C12.9243 7.19309 12.9 7.09587 12.9 6.99713V0.6C12.9 0.2685 12.6315 0 12.3 0H11.7C11.3685 0 11.1 0.2685 11.1 0.6V6.99713C11.1 7.19775 10.9999 7.38488 10.833 7.49625L9.6 8.31825V6.06413C9.6 4.70325 8.424 3.6 6.97312 3.6C5.32387 3.6 4.80075 4.671 3.97125 5.96738C2.24738 8.6625 0.9585 11.5819 0.145875 14.6306C0.04875 14.994 0 15.3671 0 15.7418C0 18.0379 2.343 19.6958 4.6965 19.065L6.92775 18.4669C8.5095 18.0431 9.6 16.6868 9.6 15.1436V11.8628L6.381 14.0089C6.34824 14.0307 6.31148 14.0459 6.27284 14.0536C6.2342 14.0612 6.19443 14.0612 6.1558 14.0535C6.11718 14.0457 6.08046 14.0305 6.04774 14.0085C6.01502 13.9866 5.98695 13.9584 5.96513 13.9256L5.63213 13.4265C5.61026 13.3937 5.59507 13.357 5.58741 13.3183C5.57976 13.2797 5.57981 13.2399 5.58754 13.2013C5.59527 13.1627 5.61054 13.126 5.63248 13.0932C5.65441 13.0605 5.68258 13.0324 5.71538 13.0106L12 8.82113L18.2846 13.0106C18.3174 13.0325 18.3456 13.0605 18.3675 13.0933C18.3894 13.126 18.4047 13.1627 18.4124 13.2013C18.4202 13.2399 18.4202 13.2797 18.4126 13.3183C18.4049 13.357 18.3897 13.3937 18.3679 13.4265L18.0349 13.9256C18.013 13.9584 17.985 13.9866 17.9523 14.0085C17.9195 14.0304 17.8828 14.0457 17.8442 14.0534C17.8056 14.0612 17.7658 14.0612 17.7272 14.0536C17.6885 14.0459 17.6518 14.0307 17.619 14.0089L14.4 11.8628V15.1436C14.4 16.6868 15.4905 18.0428 17.0723 18.4669L19.3035 19.065C21.657 19.6958 24 18.0379 24 15.7418C24 15.3671 23.9513 14.994 23.8541 14.6306Z" fill="white"/>
</svg>
