<svg width="18" height="12" viewBox="0 0 18 12" fill="none" xmlns="http://www.w3.org/2000/svg">
<path fill-rule="evenodd" clip-rule="evenodd" d="M0.94 0C0.420852 0 0 0.420852 0 0.94V1.06C0 1.57915 0.420853 2 0.940001 2H17.06C17.5791 2 18 1.57915 18 1.06V0.94C18 0.420852 17.5791 0 17.06 0H0.94ZM2 6C2 6.55229 1.55228 7 1 7C0.447715 7 0 6.55229 0 6C0 5.44772 0.447715 5 1 5C1.55228 5 2 5.44772 2 6ZM4.93902 5.00024C4.41988 5.00024 3.99902 5.4211 3.99902 5.94024V6.06024C3.99902 6.57939 4.41988 7.00024 4.93902 7.00024H17.059C17.5782 7.00024 17.999 6.57939 17.999 6.06024V5.94024C17.999 5.4211 17.5782 5.00024 17.059 5.00024H4.93902ZM0 10.94C0 10.4209 0.420852 10 0.94 10H17.06C17.5791 10 18 10.4209 18 10.94V11.06C18 11.5791 17.5791 12 17.06 12H0.940001C0.420853 12 0 11.5791 0 11.06V10.94Z" fill="white"/>
</svg>
