<svg width="19" height="21" viewBox="0 0 19 21" fill="none" xmlns="http://www.w3.org/2000/svg">
<path d="M12.5714 0.714279C13.6911 0.714279 14.6436 1.42986 14.9965 2.42864L6.68093 2.42857C5.15261 2.42857 4.59841 2.58769 4.03968 2.88651C3.48095 3.18532 3.04245 3.62381 2.74364 4.18254C2.44483 4.74127 2.2857 5.29548 2.2857 6.8238L2.28577 15.9966C1.287 15.6436 0.571411 14.6911 0.571411 13.5714V5.85714C0.571411 3.01681 2.87395 0.714279 5.71427 0.714279H12.5714ZM16 4.14285C17.4201 4.14285 18.5714 5.29412 18.5714 6.71428V17.8571C18.5714 19.2773 17.4201 20.4286 16 20.4286H6.57141C5.15125 20.4286 3.99998 19.2773 3.99998 17.8571V6.71428C3.99998 5.29412 5.15125 4.14285 6.57141 4.14285H16ZM16 5.85714H6.57141C6.09802 5.85714 5.71427 6.24089 5.71427 6.71428V17.8571C5.71427 18.3305 6.09802 18.7143 6.57141 18.7143H16C16.4734 18.7143 16.8571 18.3305 16.8571 17.8571V6.71428C16.8571 6.24089 16.4734 5.85714 16 5.85714Z" fill="#01DB9D"/>
</svg>
