<svg width="18" height="18" viewBox="0 0 18 18" fill="none" xmlns="http://www.w3.org/2000/svg">
<path d="M8.25 11.9999V17.9999H5.13437C4.13141 17.9999 3.76772 17.8955 3.40105 17.6994C3.03438 17.5033 2.74662 17.2156 2.55052 16.8489C2.35443 16.4822 2.25 16.1185 2.25 15.1156V11.9999H8.25ZM15.75 11.9999V15.1156C15.75 16.1185 15.6456 16.4822 15.4495 16.8489C15.2534 17.2156 14.9656 17.5033 14.599 17.6994C14.2656 17.8777 13.9347 17.9802 13.1238 17.9974L12.8656 17.9999H9.75V11.9999H15.75ZM8.25 5.99993V10.4999H2.19219C1.69071 10.4999 1.50886 10.4477 1.32552 10.3497C1.14219 10.2516 0.99831 10.1077 0.900262 9.92441C0.802214 9.74108 0.75 9.55923 0.75 9.05775V8.1349C0.75 7.62151 0.837024 7.2647 1.00044 6.95914C1.16385 6.65359 1.40365 6.41378 1.70921 6.25037C2.01476 6.08696 2.37158 5.99993 2.88497 5.99993H8.25ZM15.115 5.99993C15.6284 5.99993 15.9852 6.08696 16.2908 6.25037C16.5963 6.41378 16.8362 6.65359 16.9996 6.95914C17.1357 7.21377 17.2189 7.504 17.2428 7.89077L17.25 8.1349V9.05775C17.25 9.55923 17.1978 9.74108 17.0997 9.92441C17.0017 10.1077 16.8578 10.2516 16.6745 10.3497C16.5173 10.4337 16.3613 10.4841 16.0041 10.4968L15.8078 10.4999H9.75V5.99993H15.115ZM9.002 5.44767L9.00316 5.26904C9.18657 0.333405 12.675 -0.825066 14.25 0.749934C15.9 2.39993 14.55 6.14993 9 5.99993C3.45 6.14993 2.1 2.39993 3.75 0.749934C5.34383 -0.843895 8.89711 0.361494 9.002 5.44767Z" fill="white"/>
</svg>
