<svg width="32" height="32" viewBox="0 0 32 32" fill="none" xmlns="http://www.w3.org/2000/svg">
<path d="M16 32C24.8366 32 32 24.8366 32 16C32 7.16344 24.8366 0 16 0C7.16344 0 0 7.16344 0 16C0 24.8366 7.16344 32 16 32Z" fill="url(#paint0_linear)"/>
<path d="M18.8125 16C18.8125 17.5532 17.5532 18.8125 16 18.8125C14.4468 18.8125 13.1875 17.5532 13.1875 16C13.1875 14.4468 14.4468 13.1875 16 13.1875C17.5532 13.1875 18.8125 14.4468 18.8125 16Z" fill="white"/>
<path d="M20.75 7.5H11.25C9.18213 7.5 7.5 9.18213 7.5 11.25V20.75C7.5 22.8179 9.18213 24.5 11.25 24.5H20.75C22.8179 24.5 24.5 22.8179 24.5 20.75V11.25C24.5 9.18213 22.8179 7.5 20.75 7.5ZM16 20.6875C13.4153 20.6875 11.3125 18.5847 11.3125 16C11.3125 13.4153 13.4153 11.3125 16 11.3125C18.5847 11.3125 20.6875 13.4153 20.6875 16C20.6875 18.5847 18.5847 20.6875 16 20.6875ZM21.375 11.5625C20.8572 11.5625 20.4375 11.1428 20.4375 10.625C20.4375 10.1072 20.8572 9.6875 21.375 9.6875C21.8928 9.6875 22.3125 10.1072 22.3125 10.625C22.3125 11.1428 21.8928 11.5625 21.375 11.5625Z" fill="white"/>
<defs>
<linearGradient id="paint0_linear" x1="-1.03842e-06" y1="-3.5" x2="14.5" y2="32" gradientUnits="userSpaceOnUse">
<stop stop-color="#2F46E2"/>
<stop offset="0.505208" stop-color="#BF335C"/>
<stop offset="1" stop-color="#F4DB8A"/>
</linearGradient>
</defs>
</svg>
