<svg width="125" height="36" viewBox="0 0 125 36" fill="none" xmlns="http://www.w3.org/2000/svg">
<path fill-rule="evenodd" clip-rule="evenodd" d="M37.2254 10.768L32.301 10.7738L35.9259 3.82694L39.0227 3.82272C41.0199 3.8189 42.0226 5.53349 42.0226 6.85668C42.0226 9.39736 40.0047 10.768 37.2254 10.768ZM34.6498 21.2341L26.8386 21.2414L30.339 14.5339L37.4697 14.5254C38.6187 14.5254 40.4332 15.1589 40.4332 17.5307C40.4332 19.1698 39.1322 21.2341 34.6498 21.2341ZM43.4423 12.65C43.4423 12.65 48.642 11.0254 48.642 5.90958C48.642 4.00924 47.2889 0.421875 41.414 0.421875L36.2189 0.461705L28.292 0.473194L22.6641 20.1617L18.1691 7.63107L18.1235 7.63145L18.1469 7.58932L8.75474 7.60273L0.0703125 35.5349L2.86874 35.5234L14.7641 13.774L20.3073 28.4054L23.1057 28.3935L24.8728 25.0076L35.9726 24.9972C45.5647 24.9972 47.5447 20.1215 47.5447 17.4985C47.5447 13.7388 43.4423 12.65 43.4423 12.65Z" fill="#01DB9D"/>
<path fill-rule="evenodd" clip-rule="evenodd" d="M109.281 18.6889L106.512 17.3726C106.04 17.1374 105.72 16.949 105.552 16.8081C105.382 16.6664 105.315 16.4707 105.35 16.2191C105.391 15.9203 105.494 15.7078 105.662 15.5806C105.829 15.4546 106.071 15.3436 106.38 15.3436H112.553L113.186 12.9806H107.922C106.332 12.9837 105.121 13.2023 104.29 13.637C103.459 14.0709 102.907 14.8151 102.635 15.8705C102.605 15.9805 102.573 16.1459 102.543 16.3661C102.45 17.0425 102.555 17.6208 102.859 18.0999C103.162 18.579 103.69 18.9987 104.443 19.3595L107.212 20.6754C107.329 20.7378 107.518 20.8278 107.776 20.9458C108.036 21.063 108.227 21.1848 108.352 21.31C108.477 21.4364 108.503 21.6405 108.432 21.9235C108.349 22.1755 108.194 22.3647 107.965 22.4911C107.735 22.6179 107.364 22.7638 106.865 22.7638H101.069L100.433 25.1402H105.179C106.421 25.1371 107.42 25.0639 108.171 24.9211C108.923 24.7782 109.553 24.4906 110.061 24.0559C110.57 23.6228 110.948 22.9729 111.193 22.1074C111.263 21.8239 111.305 21.6279 111.321 21.5172C111.414 20.8401 111.301 20.2936 110.982 19.8777C110.661 19.4614 110.095 19.0646 109.281 18.6889Z" fill="white"/>
<path fill-rule="evenodd" clip-rule="evenodd" d="M67.8123 8.61082C67.6931 8.44691 67.5005 8.36418 67.2324 8.36456L65.91 8.36763C65.627 8.3684 65.4094 8.4312 65.2582 8.55759C65.1069 8.68397 64.997 8.88006 64.9288 9.14737L64.5638 10.4235C64.4926 10.7061 64.5144 10.9229 64.6274 11.0711C64.7404 11.2216 64.9388 11.2955 65.2218 11.2955L66.5442 11.2928C66.8276 11.2921 67.0444 11.2327 67.1945 11.1144C67.3443 10.996 67.4538 10.8034 67.5227 10.5345L67.8674 9.23699C67.949 8.98537 67.9314 8.77627 67.8123 8.61082Z" fill="white"/>
<path fill-rule="evenodd" clip-rule="evenodd" d="M97.4138 17.8736C97.073 18.1187 96.5693 18.2646 95.9018 18.3132L92.5538 18.6261C92.8215 17.7139 93.1019 17.0199 93.3952 16.5481C93.6882 16.0751 94.0486 15.7522 94.4737 15.578C94.8996 15.4045 95.4671 15.3087 96.1772 15.2915C96.839 15.2911 96.9983 15.2915 97.2916 15.2915C97.5724 15.2915 98.3578 15.2904 98.3578 16.2593C98.3578 16.9582 97.7547 17.6288 97.4138 17.8736ZM101.096 16.0847C101.233 15.0927 101.103 13.0247 98.4995 13.0247H95.6816C93.666 13.0247 91.5902 14.4907 91.0031 15.3252C90.4156 16.1601 89.9147 17.3332 89.5015 18.8448C89.3349 19.4744 89.2223 20.0094 89.1614 20.4499C88.9396 22.0549 89.1913 23.2506 89.917 24.0357C90.6424 24.8212 91.9123 25.1421 93.707 25.1391H98.12L98.7561 22.7627H94.4132C91.5347 22.7627 92.1233 20.5391 92.1233 20.5391L95.826 20.2243C97.3341 20.127 98.4858 19.8264 99.2797 19.3212C100.073 18.8161 100.627 17.9973 100.941 16.8636C100.998 16.6744 101.05 16.4144 101.096 16.0847Z" fill="white"/>
<path fill-rule="evenodd" clip-rule="evenodd" d="M117.213 15.5795C117.38 15.4535 117.622 15.3424 117.932 15.3424H124.104L124.737 12.9794H119.473C117.883 12.9825 116.673 13.2012 115.842 13.6359C115.011 14.0698 114.459 14.8139 114.187 15.8694C114.157 15.9793 114.125 16.1448 114.095 16.365C114.001 17.0413 114.106 17.6196 114.41 18.0987C114.714 18.5778 115.242 18.9976 115.995 19.3583L118.764 20.6746C118.881 20.7367 119.069 20.8267 119.328 20.9446C119.587 21.0618 119.778 21.1836 119.903 21.3088C120.028 21.4352 120.054 21.6393 119.984 21.9224C119.901 22.1748 119.745 22.3636 119.516 22.4899C119.286 22.6167 118.915 22.7626 118.416 22.7626H112.621L111.984 25.139H116.73C117.973 25.1359 118.971 25.0632 119.723 24.9203C120.475 24.7775 121.104 24.4899 121.612 24.0548C122.122 23.6216 122.499 22.9717 122.744 22.1062C122.815 21.8228 122.857 21.6267 122.872 21.516C122.966 20.8389 122.853 20.2928 122.533 19.8765C122.213 19.4602 121.646 19.0638 120.833 18.6877L118.064 17.3714C117.592 17.1363 117.272 16.9479 117.103 16.8069C116.933 16.6652 116.866 16.4695 116.901 16.2179C116.942 15.9192 117.046 15.7066 117.213 15.5795Z" fill="white"/>
<path fill-rule="evenodd" clip-rule="evenodd" d="M58.456 12.5693C58.6643 11.86 58.9462 11.3568 59.3031 11.0569C59.6589 10.7578 60.1675 10.6073 60.8285 10.6058L62.6236 10.6023L63.1639 8.36456H60.2181C58.9745 8.36763 58.0025 8.67899 57.3028 9.30248C56.6028 9.92597 56.0723 10.8585 55.7119 12.1024L55.3347 13.4367H53.2406L52.7098 15.5109H54.7407L51.161 28.412H54.033L57.6211 15.5109H63.2478L60.5467 25.144L63.4033 25.1386L66.6988 13.4161L58.2155 13.431L58.456 12.5693Z" fill="white"/>
<path fill-rule="evenodd" clip-rule="evenodd" d="M85.8664 13.0468C83.315 13.0468 80.5767 14.2325 80.5767 14.2325L80.8678 13.3865L78.2409 13.3911L74.9626 25.1435L77.8197 25.1385L80.049 17.0699C80.049 17.0699 82.0926 15.4798 84.1966 15.4798C85.4168 15.4798 85.1503 16.9179 85.0924 17.1071L82.8731 25.1278L85.7305 25.1225L88.2026 16.2986C88.2727 16.0156 88.8916 13.0468 85.8664 13.0468Z" fill="white"/>
<path fill-rule="evenodd" clip-rule="evenodd" d="M71.0308 22.7092C70.8818 22.5916 70.7884 22.2772 70.9584 21.6124L72.6807 15.4824H76.0298L76.6116 13.3952L73.2747 13.4021L74.2069 10.0724L71.3736 10.0778L70.441 13.4074H68.2764L67.7456 15.4824H69.847L68.0252 21.9957C67.9697 22.1688 67.9218 22.4051 67.88 22.7035C67.7605 23.569 67.916 24.2373 68.3469 24.7091C68.777 25.1806 69.4943 25.1457 70.4234 25.1434H73.3348L73.966 22.8816L71.9155 22.885C71.4743 22.8854 71.1798 22.8276 71.0308 22.7092Z" fill="white"/>
</svg>
