<svg width="16" height="14" viewBox="0 0 16 14" fill="none" xmlns="http://www.w3.org/2000/svg">
<path d="M16 7.42842C16 7.13691 15.8751 6.83706 15.6668 6.63717L10.203 1.18168C9.97814 0.965122 9.71161 0.848516 9.45341 0.848516C8.82874 0.848516 8.40396 1.28995 8.40396 1.87298C8.40396 2.18116 8.52889 2.43935 8.72879 2.63092L10.6111 4.52993L12.7267 6.46226L10.8527 6.36231L1.0911 6.36231C0.441437 6.36231 0 6.79542 0 7.42842C0 8.06143 0.441437 8.49453 1.0911 8.49453L10.8527 8.49453L12.7184 8.38626L10.6111 10.3269L8.72879 12.2259C8.52889 12.4175 8.40396 12.6757 8.40396 12.9839C8.40396 13.5669 8.82874 14 9.45341 14C9.71161 14 9.97814 13.8917 10.2197 13.6585L15.6668 8.21968C15.8751 8.01145 16 7.71994 16 7.42842Z" fill="#01DB9D"/>
</svg>
