<svg width="20" height="20" viewBox="0 0 20 20" fill="none" xmlns="http://www.w3.org/2000/svg">
<path d="M13.0774 0.571411C14.9485 0.571411 15.8483 0.745165 16.7832 1.24514C17.631 1.69854 18.3014 2.36901 18.7548 3.2168C19.2548 4.15167 19.4286 5.05145 19.4286 6.92259V13.0774C19.4286 14.9485 19.2548 15.8483 18.7548 16.7832C18.3014 17.631 17.631 18.3014 16.7832 18.7548C15.8483 19.2548 14.9485 19.4286 13.0774 19.4286H6.92259C5.05145 19.4286 4.15167 19.2548 3.2168 18.7548C2.36901 18.3014 1.69854 17.631 1.24514 16.7832C0.745165 15.8483 0.571411 14.9485 0.571411 13.0774V6.92259C0.571411 5.05145 0.745165 4.15167 1.24514 3.2168C1.69854 2.36901 2.36901 1.69854 3.2168 1.24514C4.15167 0.745165 5.05145 0.571411 6.92259 0.571411H13.0774ZM13.0774 2.2857H6.92259C5.31024 2.2857 4.67783 2.40782 4.02526 2.75682C3.47622 3.05045 3.05045 3.47622 2.75682 4.02526C2.40782 4.67783 2.2857 5.31024 2.2857 6.92259V13.0774C2.2857 14.6897 2.40782 15.3221 2.75682 15.9747C3.05045 16.5238 3.47622 16.9495 4.02526 17.2431C4.67783 17.5921 5.31024 17.7143 6.92259 17.7143H13.0774C14.6897 17.7143 15.3221 17.5921 15.9747 17.2431C16.5238 16.9495 16.9495 16.5238 17.2431 15.9747C17.5921 15.3221 17.7143 14.6897 17.7143 13.0774V6.92259C17.7143 5.31024 17.5921 4.67783 17.2431 4.02526C16.9495 3.47622 16.5238 3.05045 15.9747 2.75682C15.3221 2.40782 14.6897 2.2857 13.0774 2.2857ZM9.14284 13C9.61623 13 9.99998 13.3837 9.99998 13.8571C9.99998 14.3305 9.61623 14.7143 9.14284 14.7143H5.71427C5.24088 14.7143 4.85713 14.3305 4.85713 13.8571C4.85713 13.3837 5.24088 13 5.71427 13H9.14284ZM14.2857 9.14284C14.7591 9.14284 15.1428 9.5266 15.1428 9.99998C15.1428 10.4734 14.7591 10.8571 14.2857 10.8571H5.71427C5.24088 10.8571 4.85713 10.4734 4.85713 9.99998C4.85713 9.5266 5.24088 9.14284 5.71427 9.14284H14.2857ZM14.2857 5.2857C14.7591 5.2857 15.1428 5.66945 15.1428 6.14284C15.1428 6.61623 14.7591 6.99998 14.2857 6.99998H5.71427C5.24088 6.99998 4.85713 6.61623 4.85713 6.14284C4.85713 5.66945 5.24088 5.2857 5.71427 5.2857H14.2857Z" fill="white"/>
</svg>
